<?xml version="1.0" encoding="UTF-8"?>
<svg width="141px" height="64px" viewBox="0 0 141 64" version="1.1" xmlns="http://www.w3.org/2000/svg" xmlns:xlink="http://www.w3.org/1999/xlink">
    <!-- Generator: Sketch 44.1 (41455) - http://www.bohemiancoding.com/sketch -->
    <title>logo / gradient_tm</title>
    <desc>Created with Sketch.</desc>
    <defs>
        <filter x="-10.4%" y="-22.9%" width="121.6%" height="154.2%" filterUnits="objectBoundingBox" id="filter-1">
            <feOffset dx="0" dy="2" in="SourceAlpha" result="shadowOffsetOuter1"></feOffset>
            <feGaussianBlur stdDeviation="4" in="shadowOffsetOuter1" result="shadowBlurOuter1"></feGaussianBlur>
            <feColorMatrix values="0 0 0 0 0   0 0 0 0 0   0 0 0 0 0  0 0 0 0.102326766 0" type="matrix" in="shadowBlurOuter1" result="shadowMatrixOuter1"></feColorMatrix>
            <feMerge>
                <feMergeNode in="shadowMatrixOuter1"></feMergeNode>
                <feMergeNode in="SourceGraphic"></feMergeNode>
            </feMerge>
        </filter>
        <linearGradient x1="22.0357258%" y1="19.185894%" x2="83.6160828%" y2="85.2258396%" id="linearGradient-2">
            <stop stop-color="#FFE700" offset="0%"></stop>
            <stop stop-color="#FDA514" offset="100%"></stop>
        </linearGradient>
    </defs>
    <g id="Symbols" stroke="none" stroke-width="1" fill="none" fill-rule="evenodd">
        <g id="Sidenav" transform="translate(-38.000000, -13.000000)" fill="url(#linearGradient-2)">
            <g id="logo-/-gradient_tm">
                <g transform="translate(46.000000, 19.000000)">
                    <g id="logo-/-white_tm">
                        <g filter="url(#filter-1)" fill-rule="nonzero">
                            <path d="M12.3550522,36.4252168 C17.5774073,36.4252168 20.12453,33.3295701 20.6765321,32.354513 C20.6765321,33.5839656 20.7191098,34.5168745 20.7191098,35.7467035 C20.7191098,39.6902095 18.7236125,42.6586585 14.1806156,42.6586585 C7.34520852,42.6586585 7.26005323,37.9094412 7.26005323,37.9094412 L1.35871663,37.9094412 C1.65600654,43.2099742 6.07127038,47.9166667 13.6286135,47.9166667 C20.7616874,47.9166667 26.4083117,44.2700807 26.4083117,35.2804371 L26.4083117,9.75320629 L20.8890435,9.75320629 L20.8890435,13.3151192 C18.8083909,10.6861151 16.0913345,9.24403902 12.4398307,9.24403902 C5.09499895,9.24403902 0,15.26561 0,23.27982 C0,30.5733683 5.00984367,36.4252168 12.3550522,36.4252168 L12.3550522,36.4252168 Z M20.6339545,22.8982268 C20.6339545,27.562771 17.9594757,31.2944063 13.7559697,31.2944063 C8.6613475,31.2944063 6.19862652,27.478098 6.19862652,23.1526223 C6.19862652,18.7003251 8.53399137,14.5870966 13.4590565,14.5870966 C18.3837449,14.5870966 20.6339545,18.6156522 20.6339545,22.8982268 L20.6339545,22.8982268 Z M29.6769936,22.771029 C29.6769936,30.9549615 35.8756201,36.4252168 43.6876755,36.4252168 C52.2638677,36.4252168 57.4014443,30.3189728 57.4014443,22.771029 C57.4014443,15.1809369 51.6696647,9.07469292 43.602897,9.07469292 C35.9181978,9.07469292 29.6769936,15.1384121 29.6769936,22.771029 L29.6769936,22.771029 Z M43.5177417,14.5870966 C48.8674529,14.5870966 51.4149525,18.4884544 51.4149525,22.8982268 C51.4149525,27.3083755 48.6127406,31.0400108 43.5177417,31.0400108 C38.7204094,31.0400108 35.7056863,27.2237025 35.7056863,22.8135537 C35.7056863,18.4034051 38.7626103,14.5870966 43.5177417,14.5870966 L43.5177417,14.5870966 Z M60.8404368,35.7892281 L66.8691296,35.7892281 L66.8691296,2.62938042 L60.8404368,2.62938042 L60.8404368,35.7892281 Z M83.1296442,36.4252168 C88.7336908,36.4252168 91.5784802,32.354513 91.5784802,32.354513 L91.5784802,35.7892281 L97.0977484,35.7892281 L97.0977484,2.62938042 L91.4085465,2.62938042 L91.4085465,12.933526 C89.1157592,10.3466703 86.9081274,9.2865637 83.3417788,9.2865637 C75.147655,9.2865637 70.774592,15.5200055 70.774592,22.7710291 C70.774592,29.7676572 74.8081642,36.4252168 83.1296442,36.4252168 L83.1296442,36.4252168 Z M91.2811904,22.6438312 C91.2811904,27.2237024 88.9462023,31.3790793 83.9785594,31.3790793 C79.6906517,31.3790793 76.9306409,27.9868888 76.9306409,22.9407514 C76.9306409,18.3612566 79.3933619,14.4598988 84.2758494,14.4598988 C88.5641339,14.4598988 91.2811904,18.0218117 91.2811904,22.6438312 L91.2811904,22.6438312 Z M102.192371,35.7892281 L108.221063,35.7892281 L108.221063,9.75320629 L102.192371,9.75320629 L102.192371,35.7892281 Z M101.470435,3.77416004 C101.470435,5.85184851 103.168642,7.54794376 105.248918,7.54794376 C107.32957,7.54794376 109.027778,5.85184851 109.027778,3.77416004 C109.027778,1.69647158 107.32957,0 105.248918,0 C103.168642,0 101.470435,1.69647158 101.470435,3.77416004 L101.470435,3.77416004 Z" id="Fill-1"></path>
                            <path d="M118.553859,1.02292769 L118.553859,0 L113.888889,0 L113.888889,1.02292769 L115.670059,1.02292769 L115.670059,5.55555556 L116.772689,5.55555556 L116.772689,1.02292769 L118.553859,1.02292769 Z M122.675997,5.55555556 L123.931298,1.07583774 L123.931298,5.55555556 L125,5.55555556 L125,0 L123.371501,0 L122.167091,4.23280424 L120.996607,0 L119.300255,0 L119.300255,5.55555556 L120.38592,5.55555556 L120.38592,1.11111111 L121.607294,5.55555556 L122.675997,5.55555556 Z" id="™"></path>
                        </g>
                    </g>
                </g>
            </g>
        </g>
    </g>
</svg>